<svg width="183.313" height="26.625" viewBox="0 0 183.313 26.625" xmlns="http://www.w3.org/2000/svg"><g id="svgGroup" stroke-linecap="round" fill-rule="evenodd" font-size="9pt" stroke="#ffffff" stroke-width="0.25mm" fill="#ffffff" style="stroke:#ffffff;stroke-width:0.25mm;fill:#ffffff"><path d="M 29.109 22.406 L 30.328 22.406 L 34.969 22.313 A 1.683 1.683 0 0 0 35.082 22.307 Q 35.406 22.283 36.422 22.156 A 3.691 3.691 0 0 1 36.713 22.129 Q 37.577 22.084 38.141 22.5 A 1.562 1.562 0 0 1 38.785 23.646 A 2.214 2.214 0 0 1 38.797 23.875 A 3.202 3.202 0 0 1 38.697 24.705 Q 38.432 25.694 37.461 26.086 Q 36.384 26.52 32.259 26.605 A 106.452 106.452 0 0 1 30.094 26.625 A 34.45 34.45 0 0 1 28.198 26.577 Q 25.384 26.421 24.267 25.759 A 1.951 1.951 0 0 1 23.875 25.461 A 3.536 3.536 0 0 1 23.075 24.162 Q 22.874 23.616 22.787 22.941 A 8.789 8.789 0 0 1 22.719 21.813 A 15.172 15.172 0 0 1 22.813 20.258 Q 23.09 17.625 24.176 12.881 A 154.092 154.092 0 0 1 24.281 12.422 A 126.009 126.009 0 0 0 24.829 10.032 Q 25.537 6.789 25.661 5.166 A 8.188 8.188 0 0 0 25.688 4.547 A 27.686 27.686 0 0 1 25.734 3.771 Q 25.79 3.028 25.877 2.543 A 4.385 4.385 0 0 1 25.961 2.164 Q 26.156 1.453 26.773 0.984 A 2.21 2.21 0 0 1 27.603 0.601 Q 27.956 0.516 28.375 0.516 A 1.943 1.943 0 0 1 28.986 0.608 A 1.661 1.661 0 0 1 29.563 0.938 A 32.356 32.356 0 0 1 32.853 0.265 Q 34.528 0.017 36.048 0.001 A 19.804 19.804 0 0 1 36.25 0 A 23.809 23.809 0 0 1 41.102 0.508 Q 42.866 0.874 43.357 1.733 A 1.455 1.455 0 0 1 43.547 2.469 A 2.515 2.515 0 0 1 42.795 4.283 A 3.143 3.143 0 0 1 42.789 4.289 Q 42.031 5.063 41.047 5.063 A 2.434 2.434 0 0 1 40.375 4.969 A 18.174 18.174 0 0 0 35.771 4.298 A 17.036 17.036 0 0 0 35.547 4.297 A 20.004 20.004 0 0 0 32.746 4.504 A 26.88 26.88 0 0 0 30.063 5.031 Q 29.503 8.414 29.057 10.683 A 94.011 94.011 0 0 1 28.953 11.203 A 147.662 147.662 0 0 0 30.067 11.108 Q 31.957 10.941 35.156 10.625 Q 38.172 10.344 39 10.344 A 2.561 2.561 0 0 1 39.583 10.406 A 1.729 1.729 0 0 1 40.391 10.828 A 1.609 1.609 0 0 1 40.891 11.845 A 2.235 2.235 0 0 1 40.906 12.109 A 2.504 2.504 0 0 1 40.32 13.734 A 2.016 2.016 0 0 1 39.535 14.31 Q 39.071 14.509 38.438 14.563 Q 37.164 14.67 34.52 14.935 A 693.38 693.38 0 0 0 34.422 14.945 Q 32.553 15.133 30.211 15.325 A 361.703 361.703 0 0 1 27.984 15.5 A 103.567 103.567 0 0 0 27.631 17.298 Q 27.175 19.742 27.095 21.001 A 7.677 7.677 0 0 0 27.078 21.484 A 3.762 3.762 0 0 0 27.085 21.721 Q 27.107 22.075 27.203 22.219 Q 27.315 22.386 28.751 22.404 A 29.07 29.07 0 0 0 29.109 22.406 Z M 70.688 22.406 L 71.906 22.406 L 76.547 22.313 A 1.683 1.683 0 0 0 76.66 22.307 Q 76.984 22.283 78 22.156 A 3.691 3.691 0 0 1 78.291 22.129 Q 79.155 22.084 79.719 22.5 A 1.562 1.562 0 0 1 80.363 23.646 A 2.214 2.214 0 0 1 80.375 23.875 A 3.202 3.202 0 0 1 80.275 24.705 Q 80.01 25.694 79.039 26.086 Q 77.963 26.52 73.837 26.605 A 106.452 106.452 0 0 1 71.672 26.625 A 34.45 34.45 0 0 1 69.776 26.577 Q 66.962 26.421 65.845 25.759 A 1.951 1.951 0 0 1 65.453 25.461 A 3.536 3.536 0 0 1 64.653 24.162 Q 64.453 23.616 64.365 22.941 A 8.789 8.789 0 0 1 64.297 21.813 A 15.172 15.172 0 0 1 64.392 20.258 Q 64.668 17.625 65.754 12.881 A 154.092 154.092 0 0 1 65.859 12.422 A 126.009 126.009 0 0 0 66.407 10.032 Q 67.115 6.789 67.239 5.166 A 8.188 8.188 0 0 0 67.266 4.547 A 27.686 27.686 0 0 1 67.312 3.771 Q 67.368 3.028 67.455 2.543 A 4.385 4.385 0 0 1 67.539 2.164 Q 67.734 1.453 68.352 0.984 A 2.21 2.21 0 0 1 69.181 0.601 Q 69.534 0.516 69.953 0.516 A 1.943 1.943 0 0 1 70.564 0.608 A 1.661 1.661 0 0 1 71.141 0.938 A 32.356 32.356 0 0 1 74.431 0.265 Q 76.106 0.017 77.626 0.001 A 19.804 19.804 0 0 1 77.828 0 A 23.809 23.809 0 0 1 82.68 0.508 Q 84.444 0.874 84.935 1.733 A 1.455 1.455 0 0 1 85.125 2.469 A 2.515 2.515 0 0 1 84.373 4.283 A 3.143 3.143 0 0 1 84.367 4.289 Q 83.609 5.063 82.625 5.063 A 2.434 2.434 0 0 1 81.953 4.969 A 18.174 18.174 0 0 0 77.349 4.298 A 17.036 17.036 0 0 0 77.125 4.297 A 20.004 20.004 0 0 0 74.324 4.504 A 26.88 26.88 0 0 0 71.641 5.031 Q 71.082 8.414 70.635 10.683 A 94.011 94.011 0 0 1 70.531 11.203 A 147.662 147.662 0 0 0 71.646 11.108 Q 73.535 10.941 76.734 10.625 Q 79.75 10.344 80.578 10.344 A 2.561 2.561 0 0 1 81.161 10.406 A 1.729 1.729 0 0 1 81.969 10.828 A 1.609 1.609 0 0 1 82.469 11.845 A 2.235 2.235 0 0 1 82.484 12.109 A 2.504 2.504 0 0 1 81.898 13.734 A 2.016 2.016 0 0 1 81.113 14.31 Q 80.649 14.509 80.016 14.563 Q 78.742 14.67 76.098 14.935 A 693.38 693.38 0 0 0 76 14.945 Q 74.131 15.133 71.789 15.325 A 361.703 361.703 0 0 1 69.563 15.5 A 103.567 103.567 0 0 0 69.209 17.298 Q 68.754 19.742 68.673 21.001 A 7.677 7.677 0 0 0 68.656 21.484 A 3.762 3.762 0 0 0 68.663 21.721 Q 68.686 22.075 68.781 22.219 Q 68.893 22.386 70.329 22.404 A 29.07 29.07 0 0 0 70.688 22.406 Z M 150.891 22.406 L 152.109 22.406 L 156.75 22.313 A 1.683 1.683 0 0 0 156.863 22.307 Q 157.188 22.283 158.203 22.156 A 3.691 3.691 0 0 1 158.494 22.129 Q 159.358 22.084 159.922 22.5 A 1.562 1.562 0 0 1 160.567 23.646 A 2.214 2.214 0 0 1 160.578 23.875 A 3.202 3.202 0 0 1 160.478 24.705 Q 160.213 25.694 159.242 26.086 Q 158.166 26.52 154.04 26.605 A 106.452 106.452 0 0 1 151.875 26.625 A 34.45 34.45 0 0 1 149.98 26.577 Q 147.165 26.421 146.048 25.759 A 1.951 1.951 0 0 1 145.656 25.461 A 3.536 3.536 0 0 1 144.856 24.162 Q 144.656 23.616 144.568 22.941 A 8.789 8.789 0 0 1 144.5 21.813 A 15.172 15.172 0 0 1 144.595 20.258 Q 144.871 17.625 145.957 12.881 A 154.092 154.092 0 0 1 146.063 12.422 A 126.009 126.009 0 0 0 146.611 10.032 Q 147.318 6.789 147.442 5.166 A 8.188 8.188 0 0 0 147.469 4.547 A 27.686 27.686 0 0 1 147.515 3.771 Q 147.571 3.028 147.658 2.543 A 4.385 4.385 0 0 1 147.742 2.164 Q 147.938 1.453 148.555 0.984 A 2.21 2.21 0 0 1 149.385 0.601 Q 149.737 0.516 150.156 0.516 A 1.943 1.943 0 0 1 150.767 0.608 A 1.661 1.661 0 0 1 151.344 0.938 A 32.356 32.356 0 0 1 154.634 0.265 Q 156.309 0.017 157.829 0.001 A 19.804 19.804 0 0 1 158.031 0 A 23.809 23.809 0 0 1 162.883 0.508 Q 164.647 0.874 165.138 1.733 A 1.455 1.455 0 0 1 165.328 2.469 A 2.515 2.515 0 0 1 164.576 4.283 A 3.143 3.143 0 0 1 164.57 4.289 Q 163.813 5.063 162.828 5.063 A 2.434 2.434 0 0 1 162.156 4.969 A 18.174 18.174 0 0 0 157.552 4.298 A 17.036 17.036 0 0 0 157.328 4.297 A 20.004 20.004 0 0 0 154.527 4.504 A 26.88 26.88 0 0 0 151.844 5.031 Q 151.285 8.414 150.838 10.683 A 94.011 94.011 0 0 1 150.734 11.203 A 147.662 147.662 0 0 0 151.849 11.108 Q 153.738 10.941 156.938 10.625 Q 159.953 10.344 160.781 10.344 A 2.561 2.561 0 0 1 161.364 10.406 A 1.729 1.729 0 0 1 162.172 10.828 A 1.609 1.609 0 0 1 162.672 11.845 A 2.235 2.235 0 0 1 162.688 12.109 A 2.504 2.504 0 0 1 162.102 13.734 A 2.016 2.016 0 0 1 161.316 14.31 Q 160.852 14.509 160.219 14.563 Q 158.945 14.67 156.301 14.935 A 693.38 693.38 0 0 0 156.203 14.945 Q 154.334 15.133 151.992 15.325 A 361.703 361.703 0 0 1 149.766 15.5 A 103.567 103.567 0 0 0 149.413 17.298 Q 148.957 19.742 148.877 21.001 A 7.677 7.677 0 0 0 148.859 21.484 A 3.762 3.762 0 0 0 148.866 21.721 Q 148.889 22.075 148.984 22.219 Q 149.096 22.386 150.532 22.404 A 29.07 29.07 0 0 0 150.891 22.406 Z M 51.531 18.531 L 56.688 9.094 L 58.609 5.344 Q 59 4.578 60.305 2.852 A 6.746 6.746 0 0 1 60.991 2.066 Q 61.379 1.691 61.772 1.466 A 2.381 2.381 0 0 1 62.969 1.125 A 2.022 2.022 0 0 1 63.717 1.26 A 1.864 1.864 0 0 1 64.336 1.664 A 1.829 1.829 0 0 1 64.761 2.276 A 1.75 1.75 0 0 1 64.891 2.953 Q 64.891 3.781 64.234 4.484 A 16.419 16.419 0 0 0 62.297 7.344 L 54.672 21.344 Q 53.521 23.507 52.667 24.682 A 9.673 9.673 0 0 1 52.281 25.18 Q 51.568 26.037 50.752 26.263 A 2.223 2.223 0 0 1 50.156 26.344 Q 49.534 26.344 49.095 26.117 A 1.672 1.672 0 0 1 48.984 26.055 A 1.774 1.774 0 0 1 48.41 25.475 A 2.32 2.32 0 0 1 48.258 25.188 A 2.726 2.726 0 0 1 48.146 24.862 Q 47.873 23.921 47.32 20.938 A 94.588 94.588 0 0 1 46.837 18.056 Q 46.624 16.664 46.414 15.08 A 208.222 208.222 0 0 1 46 11.719 Q 45.813 10.297 45.359 7.5 A 33.175 33.175 0 0 1 45.199 6.278 Q 45.139 5.731 45.108 5.256 A 13.93 13.93 0 0 1 45.078 4.375 Q 45.078 2.781 45.754 2.1 A 1.6 1.6 0 0 1 45.922 1.953 Q 46.766 1.313 47.672 1.313 A 2.435 2.435 0 0 1 48.142 1.355 Q 48.434 1.413 48.665 1.547 A 1.444 1.444 0 0 1 48.773 1.617 Q 49.203 1.922 49.391 2.43 A 2.331 2.331 0 0 1 49.477 2.735 Q 49.588 3.247 49.636 4.183 A 21.159 21.159 0 0 1 49.641 4.273 A 32.911 32.911 0 0 0 49.675 4.896 Q 49.716 5.521 49.774 5.935 A 5.84 5.84 0 0 0 49.82 6.227 A 10.742 10.742 0 0 1 49.877 6.569 Q 50.028 7.553 50.422 10.625 Q 50.859 14.891 51.531 18.531 Z M 169.016 18.469 L 168.453 23.281 A 3.053 3.053 0 0 1 168.227 24.122 A 2.433 2.433 0 0 1 167.57 25.008 A 2.539 2.539 0 0 1 165.875 25.641 A 2.247 2.247 0 0 1 165.254 25.559 A 1.722 1.722 0 0 1 164.508 25.125 A 1.734 1.734 0 0 1 164.088 24.49 A 1.711 1.711 0 0 1 163.984 23.891 A 2.371 2.371 0 0 1 164.005 23.645 Q 164.082 23.002 164.447 20.977 A 277.523 277.523 0 0 1 164.625 20 L 167.25 3.875 A 3.436 3.436 0 0 1 168.232 1.956 A 4.195 4.195 0 0 1 168.258 1.93 A 2.797 2.797 0 0 1 169.785 1.153 A 3.977 3.977 0 0 1 170.484 1.094 A 25.921 25.921 0 0 1 172.924 1.205 A 22.105 22.105 0 0 1 173.969 1.328 A 26.325 26.325 0 0 1 175.097 1.515 Q 176.183 1.721 176.902 1.975 A 5.969 5.969 0 0 1 177.211 2.094 Q 178.297 2.547 179.891 3.688 A 9.621 9.621 0 0 1 181.581 5.214 A 8.265 8.265 0 0 1 182.398 6.336 Q 183.313 7.844 183.313 9.609 A 6.522 6.522 0 0 1 180.635 14.912 Q 179.566 15.762 178.072 16.445 A 18.766 18.766 0 0 1 176.625 17.031 A 18.633 18.633 0 0 1 178.529 18.279 Q 179.496 18.996 180.492 19.898 A 14.093 14.093 0 0 1 181.269 20.653 Q 182.404 21.853 182.479 22.667 A 1.234 1.234 0 0 1 182.484 22.781 Q 182.484 23.734 181.703 24.508 A 2.809 2.809 0 0 1 180.979 25.036 A 2.344 2.344 0 0 1 179.922 25.281 A 1.909 1.909 0 0 1 178.572 24.729 A 2.59 2.59 0 0 1 178.453 24.609 A 22.281 22.281 0 0 0 172.551 19.957 A 20.457 20.457 0 0 0 169.016 18.469 Z M 82.969 23.156 L 84.063 18.25 Q 85.04 13.824 85.988 8.342 A 335.157 335.157 0 0 0 86.844 3.141 A 2.337 2.337 0 0 1 87.348 2.017 A 3.169 3.169 0 0 1 87.688 1.656 A 2.403 2.403 0 0 1 89.359 1 A 2.234 2.234 0 0 1 89.97 1.079 A 1.703 1.703 0 0 1 90.703 1.5 A 1.675 1.675 0 0 1 91.209 2.579 A 2.283 2.283 0 0 1 91.219 2.797 A 3.595 3.595 0 0 1 91.191 3.158 Q 91.092 4.033 90.641 6.574 A 299.373 299.373 0 0 1 90.422 7.797 L 89.188 14.453 Q 88.785 16.54 87.653 21.448 A 717.538 717.538 0 0 1 87.453 22.313 A 21.523 21.523 0 0 0 89.993 22.114 Q 92.616 21.766 96.079 20.813 A 76.365 76.365 0 0 0 97.234 20.484 A 3.764 3.764 0 0 1 97.561 20.42 Q 97.724 20.396 97.871 20.392 A 2.168 2.168 0 0 1 97.938 20.391 A 2.483 2.483 0 0 1 98.458 20.442 Q 98.781 20.511 99.02 20.674 A 1.317 1.317 0 0 1 99.328 20.969 A 2.312 2.312 0 0 1 99.627 21.484 A 1.795 1.795 0 0 1 99.766 22.172 A 2.34 2.34 0 0 1 99.479 23.338 Q 99.227 23.786 98.754 24.124 A 3.42 3.42 0 0 1 98.414 24.336 A 6.127 6.127 0 0 1 97.586 24.7 Q 96.215 25.203 93.598 25.699 A 63.851 63.851 0 0 1 93.023 25.805 Q 88.984 26.531 86.234 26.531 Q 82.906 26.531 82.906 23.969 Q 82.906 23.594 82.969 23.156 Z M 101.797 17.703 Q 101.797 14.422 103.883 10.43 A 18.143 18.143 0 0 1 109.516 3.922 Q 113.063 1.406 117 1.406 Q 125.615 1.406 126.43 7.668 A 10.675 10.675 0 0 1 126.516 9.047 A 17.382 17.382 0 0 1 123.761 18.37 A 22.907 22.907 0 0 1 122.156 20.625 A 16.331 16.331 0 0 1 118.801 23.822 A 12.096 12.096 0 0 1 111.719 26.047 A 13.3 13.3 0 0 1 108.554 25.689 A 9.619 9.619 0 0 1 104.578 23.703 A 7.679 7.679 0 0 1 102.388 20.795 A 7.903 7.903 0 0 1 101.797 17.703 Z M 1.301 25.164 A 2.536 2.536 0 0 0 1.891 25.25 A 8.469 8.469 0 0 0 4.598 26.362 A 11.286 11.286 0 0 0 7.094 26.625 A 23.177 23.177 0 0 0 8.145 26.602 Q 10.378 26.5 12.229 25.96 A 11.201 11.201 0 0 0 17.656 22.594 A 16.421 16.421 0 0 0 19.703 19.717 A 11.317 11.317 0 0 0 21.188 14.188 A 8.989 8.989 0 0 0 20.259 10.2 A 11.553 11.553 0 0 0 18.445 7.555 A 15.273 15.273 0 0 0 15.968 5.337 A 17.312 17.312 0 0 0 11.453 3.047 Q 10.938 2.906 8.766 1.766 Q 6.859 0.781 6.328 0.781 A 2.325 2.325 0 0 0 6.171 0.787 Q 5.622 0.824 5.096 1.121 A 3.729 3.729 0 0 0 4.43 1.609 A 6.978 6.978 0 0 0 4.266 1.762 Q 3.789 2.224 3.56 2.635 A 1.698 1.698 0 0 0 3.375 3.109 Q 3.234 3.781 3 5.516 Q 2.168 11.809 1.398 15.931 A 79.407 79.407 0 0 1 0.891 18.438 A 296.751 296.751 0 0 0 0.645 19.68 Q 0 22.977 0 23.469 A 1.719 1.719 0 0 0 0.5 24.695 A 1.718 1.718 0 0 0 1.301 25.164 Z M 126.641 23.469 L 127.313 19.109 Q 127.688 16.703 128.781 11.906 A 187.273 187.273 0 0 0 130.219 4.703 A 11.409 11.409 0 0 1 130.523 3.339 Q 131.309 0.678 133.141 0.844 Q 133.946 0.584 136.219 0.552 A 47.785 47.785 0 0 1 136.906 0.547 A 8.216 8.216 0 0 1 142.219 2.43 A 7.063 7.063 0 0 1 143.591 3.877 A 5.213 5.213 0 0 1 144.547 6.922 A 8.195 8.195 0 0 1 142.156 12.73 A 11.639 11.639 0 0 1 141.25 13.586 A 11.712 11.712 0 0 1 134.016 16.374 A 14.952 14.952 0 0 1 133.297 16.391 A 5.569 5.569 0 0 1 132.909 16.376 Q 132.507 16.348 131.984 16.266 A 60.926 60.926 0 0 0 131.744 17.519 Q 131.352 19.672 130.766 23.469 A 2.391 2.391 0 0 1 129.938 24.914 A 2.321 2.321 0 0 1 128.391 25.484 A 2.117 2.117 0 0 1 127.777 25.4 A 1.619 1.619 0 0 1 126.992 24.883 A 1.574 1.574 0 0 1 126.604 23.839 Q 126.604 23.695 126.628 23.543 A 2.176 2.176 0 0 1 126.641 23.469 Z M 106.297 16.938 Q 106.297 19.063 108.016 20.43 A 6.15 6.15 0 0 0 110.675 21.635 A 8.684 8.684 0 0 0 112.391 21.797 A 7.165 7.165 0 0 0 116.99 20.101 Q 117.97 19.311 118.864 18.151 A 15.14 15.14 0 0 0 119.117 17.813 A 16.339 16.339 0 0 0 121.086 14.319 A 12.416 12.416 0 0 0 122.016 9.641 Q 122.016 8.265 121.494 7.399 A 2.694 2.694 0 0 0 120.734 6.578 A 3.757 3.757 0 0 0 119.761 6.103 Q 118.771 5.769 117.256 5.694 A 18.727 18.727 0 0 0 116.328 5.672 A 7.318 7.318 0 0 0 112.824 6.588 A 9.923 9.923 0 0 0 111.453 7.484 A 13.107 13.107 0 0 0 107.883 11.769 A 15.197 15.197 0 0 0 107.703 12.117 A 18.098 18.098 0 0 0 106.962 13.8 Q 106.297 15.563 106.297 16.938 Z M 7.156 6.188 L 4.703 21.672 A 3.77 3.77 0 0 0 5.782 22.182 Q 6.284 22.334 6.889 22.395 A 8.651 8.651 0 0 0 7.766 22.438 A 20.262 20.262 0 0 0 9.487 22.37 Q 11.185 22.224 12.249 21.767 A 4.225 4.225 0 0 0 12.813 21.477 A 8.465 8.465 0 0 0 14.65 19.915 A 10.931 10.931 0 0 0 15.555 18.75 A 6.743 6.743 0 0 0 16.75 14.891 A 5.666 5.666 0 0 0 15.633 11.5 A 9.289 9.289 0 0 0 12.805 8.937 A 22.764 22.764 0 0 0 11.81 8.385 Q 10.667 7.782 8.959 6.998 A 125.443 125.443 0 0 0 7.156 6.188 Z M 171.188 5.516 L 169.875 13.797 L 170.547 13.797 A 24.353 24.353 0 0 0 172.735 13.705 Q 175.317 13.472 176.805 12.641 A 8.603 8.603 0 0 0 177.611 12.135 Q 178.875 11.231 178.875 10.328 A 2.904 2.904 0 0 0 178.439 8.832 Q 177.959 8.023 176.953 7.242 A 7.76 7.76 0 0 0 174.269 5.866 A 7.366 7.366 0 0 0 172.734 5.609 Q 172.719 5.609 171.188 5.516 Z M 135.922 4.578 L 135.047 4.578 Q 134.697 4.578 134.415 4.605 A 4.648 4.648 0 0 0 134.375 4.609 L 134.031 6.828 A 12.964 12.964 0 0 1 133.942 7.337 Q 133.682 8.692 132.844 12.234 Q 133.5 12.359 133.938 12.359 A 8.708 8.708 0 0 0 136.05 12.116 A 6.415 6.415 0 0 0 138.563 10.883 Q 140.391 9.406 140.391 7.547 Q 140.391 6.391 139.016 5.484 A 5.497 5.497 0 0 0 135.922 4.578 Z" vector-effect="non-scaling-stroke"/></g></svg>