<svg width="151.064" height="26.625" viewBox="0 0 151.064 26.625" xmlns="http://www.w3.org/2000/svg"><g id="svgGroup" stroke-linecap="round" fill-rule="evenodd" font-size="9pt" stroke="#ffffff" stroke-width="0.25mm" fill="#ffffff" style="stroke:#ffffff;stroke-width:0.25mm;fill:#ffffff"><path d="M 84.079 23.688 L 83.891 21.828 L 83.485 16.219 A 47.741 47.741 0 0 0 83.261 13.91 A 65.419 65.419 0 0 0 82.899 11.359 A 142.247 142.247 0 0 0 82.656 9.897 Q 82.247 7.516 81.579 4 A 2.698 2.698 0 0 1 81.538 3.794 Q 81.523 3.692 81.518 3.601 A 1.426 1.426 0 0 1 81.516 3.531 A 1.987 1.987 0 0 1 81.979 2.259 A 2.83 2.83 0 0 1 82.274 1.945 A 2.618 2.618 0 0 1 84.11 1.25 A 2.179 2.179 0 0 1 84.85 1.373 A 1.978 1.978 0 0 1 85.321 1.617 A 1.559 1.559 0 0 1 85.662 1.955 Q 85.968 2.358 86.204 3.07 Q 86.561 4.149 87.033 8.086 A 140.131 140.131 0 0 1 87.04 8.141 A 153.971 153.971 0 0 1 87.482 12.354 Q 87.688 14.6 87.86 17.094 A 95.033 95.033 0 0 0 89.684 13.707 A 128.518 128.518 0 0 0 91.563 9.891 A 75.475 75.475 0 0 1 92.612 7.686 Q 94.124 4.645 95.175 3.416 A 5.587 5.587 0 0 1 95.337 3.234 Q 96.362 2.136 97.142 1.826 A 1.565 1.565 0 0 1 97.72 1.703 A 1.997 1.997 0 0 1 99.201 2.335 A 2.606 2.606 0 0 1 99.282 2.422 Q 99.839 3.047 99.912 5.48 A 25.862 25.862 0 0 1 99.923 6.25 A 17.727 17.727 0 0 1 99.919 6.555 Q 99.906 7.293 99.841 9.063 A 474.209 474.209 0 0 1 99.829 9.375 A 26.839 26.839 0 0 0 99.815 9.922 Q 99.775 12.29 100.059 16.671 A 239.803 239.803 0 0 0 100.235 19.172 Q 101.673 16.781 103.954 12.609 L 106.485 8.016 A 5.878 5.878 0 0 0 106.596 7.785 Q 106.843 7.248 107.452 5.801 A 302.715 302.715 0 0 0 107.735 5.125 Q 108.85 2.359 110.276 1.567 A 2.425 2.425 0 0 1 111.47 1.25 A 2.647 2.647 0 0 1 112.049 1.31 Q 112.457 1.401 112.756 1.632 A 1.626 1.626 0 0 1 112.876 1.734 A 1.613 1.613 0 0 1 113.388 2.866 A 2.18 2.18 0 0 1 113.391 2.984 A 1.709 1.709 0 0 1 113.359 3.307 Q 113.329 3.463 113.271 3.632 A 3.028 3.028 0 0 1 113.243 3.711 Q 113.099 4.097 112.382 5.394 A 74.533 74.533 0 0 1 112.337 5.477 A 47.86 47.86 0 0 0 111.112 7.833 A 43.229 43.229 0 0 0 110.954 8.164 A 33.734 33.734 0 0 1 110.432 9.215 Q 109.954 10.141 109.329 11.234 A 153.836 153.836 0 0 1 108.36 12.906 A 117.414 117.414 0 0 1 107.454 14.422 L 104.188 19.891 A 115.182 115.182 0 0 0 103.72 20.685 Q 103.1 21.749 102.67 22.544 A 38.155 38.155 0 0 0 102.61 22.656 A 35.8 35.8 0 0 1 102.024 23.71 Q 101.03 25.425 100.407 25.938 A 2.837 2.837 0 0 1 98.548 26.594 Q 97.579 26.594 96.907 26.031 A 1.699 1.699 0 0 1 96.528 25.593 Q 96.278 25.169 96.343 24.624 A 2.031 2.031 0 0 1 96.345 24.609 A 15.885 15.885 0 0 1 96.081 23.247 Q 95.919 22.174 95.845 20.875 A 74.25 74.25 0 0 1 95.788 19.686 Q 95.709 17.744 95.619 14.069 A 1064.212 1064.212 0 0 1 95.563 11.656 A 56.849 56.849 0 0 1 93.775 15.139 A 45.787 45.787 0 0 1 92.501 17.281 Q 90.11 21.094 89.266 23.172 Q 89.323 23.4 89.328 23.589 A 1.361 1.361 0 0 1 89.329 23.625 A 1.968 1.968 0 0 1 88.836 24.926 A 2.914 2.914 0 0 1 88.485 25.273 A 3.009 3.009 0 0 1 86.637 25.98 A 3.838 3.838 0 0 1 86.454 25.984 Q 85.298 25.984 84.641 25.398 A 1.674 1.674 0 0 1 84.113 24.448 Q 84.048 24.127 84.075 23.74 A 3.56 3.56 0 0 1 84.079 23.688 Z M 28.423 6.438 L 28.048 8.5 A 111.086 111.086 0 0 1 27.888 9.396 Q 27.657 10.668 27.47 11.5 A 19.221 19.221 0 0 0 27.262 12.328 A 14.701 14.701 0 0 0 27.11 13.094 L 33.329 11.938 A 43.569 43.569 0 0 1 37.955 11.321 A 37.975 37.975 0 0 1 39.47 11.234 A 27.029 27.029 0 0 0 39.585 10.713 Q 39.86 9.427 40.485 6.181 A 881.891 881.891 0 0 0 40.595 5.609 Q 40.766 4.52 41.483 3.278 A 11.68 11.68 0 0 1 41.923 2.578 Q 43.032 0.938 44.016 0.938 A 1.926 1.926 0 0 1 45.352 1.438 A 1.74 1.74 0 0 1 45.732 1.914 A 1.528 1.528 0 0 1 45.907 2.641 Q 45.907 3.047 45.735 3.438 A 10.079 10.079 0 0 0 45.369 4.434 Q 45.152 5.127 44.985 5.953 Q 44.931 6.189 44.856 6.477 A 24.335 24.335 0 0 1 44.782 6.75 A 96.911 96.911 0 0 0 44.701 7.136 Q 44.554 7.845 44.521 8.074 A 1.833 1.833 0 0 0 44.516 8.109 A 22.16 22.16 0 0 1 44.443 8.531 Q 44.257 9.558 43.747 12.073 A 657.108 657.108 0 0 1 43.657 12.516 A 135.638 135.638 0 0 0 43.27 14.397 Q 42.809 16.733 42.657 18.048 A 15.939 15.939 0 0 0 42.626 18.344 L 42.141 23.313 Q 42.048 24.469 41.313 25.117 A 2.515 2.515 0 0 1 39.595 25.766 A 2.339 2.339 0 0 1 38.923 25.673 A 1.872 1.872 0 0 1 38.196 25.266 A 1.771 1.771 0 0 1 37.828 24.813 A 1.486 1.486 0 0 1 37.641 24.078 L 38.345 18.344 Q 38.407 17.766 38.478 17.33 A 10.484 10.484 0 0 1 38.548 16.938 L 38.688 16.078 Q 38.735 15.688 38.829 15.328 Q 36.519 15.43 29.714 16.627 A 395.12 395.12 0 0 0 26.438 17.219 Q 26.22 18.469 25.673 20.781 A 199.489 199.489 0 0 0 25.422 21.937 Q 25.115 23.37 24.97 24.178 A 23.974 23.974 0 0 0 24.938 24.359 A 2.224 2.224 0 0 1 24.12 25.793 A 2.861 2.861 0 0 1 24.087 25.82 A 2.696 2.696 0 0 1 23.315 26.264 A 2.365 2.365 0 0 1 22.501 26.406 A 2.036 2.036 0 0 1 21.892 26.319 A 1.635 1.635 0 0 1 21.204 25.898 A 1.701 1.701 0 0 1 20.704 24.668 A 2.158 2.158 0 0 1 20.704 24.656 A 3.086 3.086 0 0 1 20.74 24.265 Q 20.869 23.343 21.456 20.81 A 200.484 200.484 0 0 1 21.735 19.625 Q 22.501 16.562 24.111 7.315 A 953.756 953.756 0 0 0 24.876 2.859 Q 25.001 1.984 25.704 1.398 A 2.443 2.443 0 0 1 27.313 0.813 A 2.074 2.074 0 0 1 27.946 0.905 A 1.723 1.723 0 0 1 28.61 1.297 A 1.607 1.607 0 0 1 29.125 2.462 A 2.128 2.128 0 0 1 29.126 2.531 Q 29.126 3.012 28.613 5.522 A 166.756 166.756 0 0 1 28.423 6.438 Z M 51.954 22.406 L 53.173 22.406 L 57.813 22.313 A 1.683 1.683 0 0 0 57.926 22.307 Q 58.251 22.283 59.266 22.156 A 3.691 3.691 0 0 1 59.557 22.129 Q 60.421 22.084 60.985 22.5 A 1.562 1.562 0 0 1 61.63 23.646 A 2.214 2.214 0 0 1 61.641 23.875 A 3.202 3.202 0 0 1 61.541 24.705 Q 61.276 25.694 60.305 26.086 Q 59.229 26.52 55.104 26.605 A 106.452 106.452 0 0 1 52.938 26.625 A 34.45 34.45 0 0 1 51.043 26.577 Q 48.228 26.421 47.112 25.759 A 1.951 1.951 0 0 1 46.72 25.461 A 3.536 3.536 0 0 1 45.919 24.162 Q 45.719 23.616 45.631 22.941 A 8.789 8.789 0 0 1 45.563 21.813 A 15.172 15.172 0 0 1 45.658 20.258 Q 45.935 17.625 47.02 12.881 A 154.092 154.092 0 0 1 47.126 12.422 A 126.009 126.009 0 0 0 47.674 10.032 Q 48.381 6.789 48.505 5.166 A 8.188 8.188 0 0 0 48.532 4.547 A 27.686 27.686 0 0 1 48.578 3.771 Q 48.634 3.028 48.722 2.543 A 4.385 4.385 0 0 1 48.805 2.164 Q 49.001 1.453 49.618 0.984 A 2.21 2.21 0 0 1 50.448 0.601 Q 50.8 0.516 51.22 0.516 A 1.943 1.943 0 0 1 51.831 0.608 A 1.661 1.661 0 0 1 52.407 0.938 A 32.356 32.356 0 0 1 55.697 0.265 Q 57.372 0.017 58.893 0.001 A 19.804 19.804 0 0 1 59.095 0 A 23.809 23.809 0 0 1 63.946 0.508 Q 65.71 0.874 66.202 1.733 A 1.455 1.455 0 0 1 66.391 2.469 A 2.515 2.515 0 0 1 65.639 4.283 A 3.143 3.143 0 0 1 65.634 4.289 Q 64.876 5.063 63.891 5.063 A 2.434 2.434 0 0 1 63.22 4.969 A 18.174 18.174 0 0 0 58.616 4.298 A 17.036 17.036 0 0 0 58.391 4.297 A 20.004 20.004 0 0 0 55.591 4.504 A 26.88 26.88 0 0 0 52.907 5.031 Q 52.348 8.414 51.901 10.683 A 94.011 94.011 0 0 1 51.798 11.203 A 147.662 147.662 0 0 0 52.912 11.108 Q 54.802 10.941 58.001 10.625 Q 61.016 10.344 61.845 10.344 A 2.561 2.561 0 0 1 62.427 10.406 A 1.729 1.729 0 0 1 63.235 10.828 A 1.609 1.609 0 0 1 63.736 11.845 A 2.235 2.235 0 0 1 63.751 12.109 A 2.504 2.504 0 0 1 63.165 13.734 A 2.016 2.016 0 0 1 62.379 14.31 Q 61.915 14.509 61.282 14.563 Q 60.009 14.67 57.364 14.935 A 693.38 693.38 0 0 0 57.266 14.945 Q 55.397 15.133 53.055 15.325 A 361.703 361.703 0 0 1 50.829 15.5 A 103.567 103.567 0 0 0 50.476 17.298 Q 50.02 19.742 49.94 21.001 A 7.677 7.677 0 0 0 49.923 21.484 A 3.762 3.762 0 0 0 49.929 21.721 Q 49.952 22.075 50.048 22.219 Q 50.159 22.386 51.595 22.404 A 29.07 29.07 0 0 0 51.954 22.406 Z M 119.079 22.406 L 120.298 22.406 L 124.938 22.313 A 1.683 1.683 0 0 0 125.051 22.307 Q 125.376 22.283 126.391 22.156 A 3.691 3.691 0 0 1 126.682 22.129 Q 127.546 22.084 128.11 22.5 A 1.562 1.562 0 0 1 128.755 23.646 A 2.214 2.214 0 0 1 128.766 23.875 A 3.202 3.202 0 0 1 128.666 24.705 Q 128.401 25.694 127.43 26.086 Q 126.354 26.52 122.229 26.605 A 106.452 106.452 0 0 1 120.063 26.625 A 34.45 34.45 0 0 1 118.168 26.577 Q 115.353 26.421 114.237 25.759 A 1.951 1.951 0 0 1 113.845 25.461 A 3.536 3.536 0 0 1 113.044 24.162 Q 112.844 23.616 112.756 22.941 A 8.789 8.789 0 0 1 112.688 21.813 A 15.172 15.172 0 0 1 112.783 20.258 Q 113.06 17.625 114.145 12.881 A 154.092 154.092 0 0 1 114.251 12.422 A 126.009 126.009 0 0 0 114.799 10.032 Q 115.506 6.789 115.63 5.166 A 8.188 8.188 0 0 0 115.657 4.547 A 27.686 27.686 0 0 1 115.703 3.771 Q 115.759 3.028 115.847 2.543 A 4.385 4.385 0 0 1 115.93 2.164 Q 116.126 1.453 116.743 0.984 A 2.21 2.21 0 0 1 117.573 0.601 Q 117.925 0.516 118.345 0.516 A 1.943 1.943 0 0 1 118.956 0.608 A 1.661 1.661 0 0 1 119.532 0.938 A 32.356 32.356 0 0 1 122.822 0.265 Q 124.497 0.017 126.018 0.001 A 19.804 19.804 0 0 1 126.22 0 A 23.809 23.809 0 0 1 131.071 0.508 Q 132.835 0.874 133.327 1.733 A 1.455 1.455 0 0 1 133.516 2.469 A 2.515 2.515 0 0 1 132.764 4.283 A 3.143 3.143 0 0 1 132.759 4.289 Q 132.001 5.063 131.016 5.063 A 2.434 2.434 0 0 1 130.345 4.969 A 18.174 18.174 0 0 0 125.741 4.298 A 17.036 17.036 0 0 0 125.516 4.297 A 20.004 20.004 0 0 0 122.716 4.504 A 26.88 26.88 0 0 0 120.032 5.031 Q 119.473 8.414 119.026 10.683 A 94.011 94.011 0 0 1 118.923 11.203 A 147.662 147.662 0 0 0 120.037 11.108 Q 121.927 10.941 125.126 10.625 Q 128.141 10.344 128.97 10.344 A 2.561 2.561 0 0 1 129.552 10.406 A 1.729 1.729 0 0 1 130.36 10.828 A 1.609 1.609 0 0 1 130.861 11.845 A 2.235 2.235 0 0 1 130.876 12.109 A 2.504 2.504 0 0 1 130.29 13.734 A 2.016 2.016 0 0 1 129.504 14.31 Q 129.04 14.509 128.407 14.563 Q 127.134 14.67 124.489 14.935 A 693.38 693.38 0 0 0 124.391 14.945 Q 122.522 15.133 120.18 15.325 A 361.703 361.703 0 0 1 117.954 15.5 A 103.567 103.567 0 0 0 117.601 17.298 Q 117.145 19.742 117.065 21.001 A 7.677 7.677 0 0 0 117.048 21.484 A 3.762 3.762 0 0 0 117.054 21.721 Q 117.077 22.075 117.173 22.219 Q 117.284 22.386 118.72 22.404 A 29.07 29.07 0 0 0 119.079 22.406 Z M 13.188 5.953 L 12.329 5.953 L 11.595 13.266 A 234.249 234.249 0 0 1 11.414 15.038 Q 11.181 17.237 10.997 18.472 A 29.086 29.086 0 0 1 10.954 18.75 A 2.894 2.894 0 0 0 10.92 18.948 Q 10.873 19.273 10.826 19.9 A 43.563 43.563 0 0 0 10.798 20.313 A 15.162 15.162 0 0 1 10.661 21.621 Q 10.468 22.895 10.067 23.647 A 2.549 2.549 0 0 1 9.649 24.234 A 4.769 4.769 0 0 1 9.115 24.71 Q 8.822 24.932 8.537 25.057 A 1.793 1.793 0 0 1 7.813 25.219 Q 6.954 25.219 6.415 24.688 A 1.801 1.801 0 0 1 5.994 24.066 A 1.735 1.735 0 0 1 5.876 23.422 A 1.181 1.181 0 0 1 5.888 23.268 Q 5.925 22.99 6.079 22.469 A 7.414 7.414 0 0 0 6.304 21.456 A 9.317 9.317 0 0 0 6.384 20.742 A 36.154 36.154 0 0 1 6.424 20.258 Q 6.542 18.93 6.923 15.172 L 7.845 6.219 L 6.173 6.281 A 34.292 34.292 0 0 1 5.381 6.303 Q 3.09 6.338 1.665 6.023 A 3.525 3.525 0 0 1 0.996 5.811 Q 0.001 5.37 0.001 4.391 A 2.666 2.666 0 0 1 0.679 2.608 A 3.395 3.395 0 0 1 0.712 2.57 A 2.327 2.327 0 0 1 2.414 1.769 A 3.117 3.117 0 0 1 2.563 1.766 L 6.985 2.047 Q 8.157 2.047 10.938 1.875 Q 13.704 1.703 14.72 1.703 L 19.626 1.797 A 38.208 38.208 0 0 1 20.124 1.8 Q 20.784 1.809 21.093 1.842 A 2.027 2.027 0 0 1 21.22 1.859 A 0.93 0.93 0 0 1 21.496 1.958 Q 21.731 2.083 21.985 2.352 Q 22.391 2.781 22.391 3.469 A 2.348 2.348 0 0 1 21.845 4.973 A 3.213 3.213 0 0 1 21.61 5.234 A 3.031 3.031 0 0 1 21.017 5.703 A 2.142 2.142 0 0 1 19.907 6.016 L 13.188 5.953 Z M 133.032 23.391 L 135.657 6.828 A 0.456 0.456 0 0 0 135.663 6.792 Q 135.69 6.594 135.813 5.391 A 24.592 24.592 0 0 1 135.941 4.368 Q 136.159 2.893 136.487 2.253 A 1.767 1.767 0 0 1 136.579 2.094 Q 137.079 1.328 138.977 0.938 A 18.091 18.091 0 0 1 140.947 0.651 Q 141.924 0.56 143.015 0.548 A 30.142 30.142 0 0 1 143.329 0.547 A 8.402 8.402 0 0 1 148.688 2.43 A 7.019 7.019 0 0 1 150.089 3.885 A 5.268 5.268 0 0 1 151.063 6.984 A 7.105 7.105 0 0 1 148.594 12.449 A 10.204 10.204 0 0 1 147.72 13.156 A 6.121 6.121 0 0 1 150.024 15.328 A 6.007 6.007 0 0 1 150.635 16.621 A 4.711 4.711 0 0 1 150.876 18.094 A 5.216 5.216 0 0 1 149.234 21.887 Q 148.249 22.874 146.673 23.68 A 16.811 16.811 0 0 1 143.077 24.988 Q 141.284 25.434 139.139 25.643 A 41.91 41.91 0 0 1 135.079 25.828 A 1.917 1.917 0 0 1 133.63 25.208 A 2.451 2.451 0 0 1 133.509 25.07 A 2.299 2.299 0 0 1 133.136 24.436 Q 132.948 23.943 133.032 23.391 Z M 138.501 15.719 L 137.563 21.578 Q 141.53 21.34 143.917 20.702 A 14.777 14.777 0 0 0 144.141 20.641 A 7.184 7.184 0 0 0 145.055 20.319 Q 146.017 19.899 146.365 19.3 A 1.441 1.441 0 0 0 146.563 18.563 Q 146.563 17.391 145.032 16.602 A 13.14 13.14 0 0 0 144.313 16.256 Q 143.305 15.813 142.72 15.813 A 59.211 59.211 0 0 1 141.934 15.807 Q 140.622 15.789 138.501 15.719 Z M 142.657 4.781 L 141.032 4.781 Q 140.438 4.781 140.22 4.813 L 139.72 8.141 L 139.173 11.391 A 17.547 17.547 0 0 0 139.841 11.48 Q 140.141 11.513 140.403 11.53 A 7.669 7.669 0 0 0 140.891 11.547 Q 143.36 11.547 145.009 10.469 A 4.322 4.322 0 0 0 145.895 9.716 A 2.953 2.953 0 0 0 146.657 7.703 Q 146.657 6.834 145.83 6.053 A 4.796 4.796 0 0 0 145.423 5.711 A 4.484 4.484 0 0 0 142.657 4.781 Z" vector-effect="non-scaling-stroke"/></g></svg>